<?xml version="1.0" standalone="no"?>
<!DOCTYPE svg PUBLIC "-//W3C//DTD SVG 20010904//EN"
 "http://www.w3.org/TR/2001/REC-SVG-20010904/DTD/svg10.dtd">
<svg version="1.0" xmlns="http://www.w3.org/2000/svg"
 width="512.000000pt" height="512.000000pt" viewBox="0 0 512.000000 512.000000"
 preserveAspectRatio="xMidYMid meet">
<metadata>
Created by potrace 1.14, written by Peter Selinger 2001-2017
</metadata>
<g transform="translate(0.000000,512.000000) scale(0.100000,-0.100000)"
fill="#000000" stroke="none">
<path d="M0 2560 l0 -2560 2560 0 2560 0 0 2560 0 2560 -2560 0 -2560 0 0
-2560z m3780 1585 c0 -16 -7 -84 -15 -150 -8 -66 -15 -171 -15 -232 l0 -113
-63 0 c-35 0 -86 6 -113 14 -159 47 -683 130 -701 112 -5 -4 -8 -528 -8 -1164
0 -1045 2 -1172 18 -1313 10 -86 22 -172 27 -190 6 -19 10 -67 10 -107 l0 -72
-357 2 -358 3 -3 38 c-2 20 3 72 12 115 38 197 41 313 41 1514 0 641 -3 1170
-8 1174 -17 17 -399 -41 -635 -97 -68 -16 -150 -29 -183 -29 l-59 0 0 145 c0
129 -12 301 -25 360 l-4 21 1219 0 1220 0 0 -31z"/>
</g>
</svg>
